<svg xmlns="http://www.w3.org/2000/svg"  viewBox="0 0 48 48" width="480px" height="480px"><path fill="#d6e5e5" d="M21.859,3.761c4.939-0.418,10.183-0.467,14.517,1.919c1.245,0.686,3.621,1.904,4.251,3.171 c1.021,7.993-0.977,18.629-4.048,26.087c-1.896,4.605-6.873,8.086-11.366,10.293c-0.244,0.12-0.501,0.235-0.774,0.242 c-0.347,0.009-0.672-0.156-0.98-0.317c-4.842-2.54-7.791-4.224-10.772-8.783c-3.064-4.685-4.505-12.639-4.803-18.217 c-0.186-3.482-0.406-7.15-0.592-10.633C11.311,5.072,17.159,4.159,21.859,3.761z M18.021,16.063 c-0.303-0.106-0.61-0.205-0.929-0.241c-0.381-0.042-0.767,0.008-1.141,0.096c-0.891,0.21-1.595,0.713-2.287,1.308 c0.223,0.48,0.94,0.733,1.458,0.858c0.744,0.179,1.498,0.359,2.264,0.354c0.505-0.004,1.006-0.088,1.504-0.173 c0.656-0.111,1.396-0.483,2.052-0.594C19.981,17.138,19.058,16.426,18.021,16.063z M32.125,16.169 c-1.313-0.146-2.739,0.462-3.696,1.365c1.134,0.903,2.29,1.343,3.614,1.341c1.245-0.002,3.278-1.048,3.614-1.375 C34.924,16.409,33.438,16.315,32.125,16.169z"/><path fill="#373837" d="M22.629,14.583c-3.356-2.281-6.388-2.855-10.398-2.176C12.232,12.407,21.819,7.774,22.629,14.583z"/><path fill="#010101" d="M22.629,15.083c-0.099,0-0.196-0.029-0.281-0.087c-3.175-2.159-6.086-2.765-10.032-2.096 c-0.25,0.043-0.484-0.104-0.561-0.341c-0.075-0.237,0.035-0.494,0.259-0.603c0.234-0.113,5.757-2.74,8.967-0.984 c1.223,0.67,1.944,1.865,2.145,3.552c0.023,0.194-0.069,0.384-0.236,0.486C22.809,15.059,22.719,15.083,22.629,15.083z M15.943,11.658c2.107,0.113,3.996,0.714,5.935,1.855c-0.272-0.759-0.728-1.308-1.377-1.663 C19.253,11.166,17.497,11.3,15.943,11.658z"/><path fill="#373837" d="M27.139,14.783c2.819-1.518,6.081-2.214,9.279-1.979C36.418,12.804,28.257,8.501,27.139,14.783z"/><path fill="#010101" d="M27.139,15.283c-0.104,0-0.206-0.032-0.293-0.095c-0.155-0.112-0.233-0.304-0.199-0.493 c0.291-1.635,1.056-2.766,2.272-3.36c2.967-1.448,7.539,0.926,7.732,1.027c0.209,0.11,0.313,0.353,0.247,0.58 c-0.064,0.228-0.267,0.38-0.518,0.361c-3.084-0.235-6.284,0.453-9.005,1.92C27.302,15.264,27.22,15.283,27.139,15.283z M31.176,11.864c-0.648,0-1.275,0.104-1.819,0.37c-0.658,0.322-1.134,0.852-1.438,1.604c1.857-0.844,3.882-1.362,5.925-1.524 C33.021,12.065,32.077,11.864,31.176,11.864z"/><path fill="#ed488b" d="M15.515,22.721c-0.837-0.513-1.545-0.507-2.486-0.221c-0.372,0.113-0.755,0.275-0.978,0.59 c-0.146,0.207-0.209,0.46-0.256,0.708c-0.06,0.315-0.1,0.637-0.078,0.957c0.08,1.139,1.043,2.154,2.184,2.303 c1.14,0.148,2.335-0.588,2.707-1.667C16.993,24.273,16.527,23.341,15.515,22.721z"/><path fill="#010101" d="M14.193,27.576c-0.119,0-0.238-0.007-0.357-0.022c-1.372-0.179-2.521-1.393-2.618-2.764 c-0.022-0.321,0.004-0.656,0.085-1.085c0.059-0.304,0.14-0.621,0.34-0.904c0.322-0.456,0.833-0.656,1.241-0.779 c0.852-0.258,1.788-0.403,2.893,0.273c1.273,0.781,1.749,1.969,1.304,3.259C16.671,26.741,15.446,27.576,14.193,27.576z M14.146,22.807c-0.284,0-0.598,0.058-0.972,0.172c-0.236,0.071-0.566,0.189-0.715,0.399c-0.086,0.121-0.132,0.294-0.174,0.515 c-0.064,0.34-0.086,0.595-0.069,0.827c0.063,0.898,0.848,1.725,1.749,1.842c0.897,0.115,1.876-0.479,2.17-1.334 c0.291-0.844-0.006-1.543-0.882-2.081l0,0C14.88,22.918,14.539,22.807,14.146,22.807z"/><path fill="#ed488b" d="M35.775,22.471c-0.778-0.33-1.839-0.257-2.589,0.13c-0.509,0.263-0.941,0.69-1.158,1.218 c-0.216,0.528-0.201,1.156,0.089,1.648c0.208,0.354,0.54,0.62,0.891,0.836c0.816,0.501,1.825,0.766,2.75,0.511 c0.925-0.255,1.703-1.12,1.659-2.072c-0.03-0.642-0.403-1.216-0.812-1.714C36.41,22.79,36.058,22.592,35.775,22.471z"/><path fill="#010101" d="M35.016,27.411c-0.747,0-1.539-0.233-2.27-0.683c-0.492-0.302-0.84-0.632-1.061-1.008 c-0.36-0.613-0.405-1.396-0.121-2.092c0.254-0.617,0.748-1.14,1.392-1.472c0.906-0.469,2.117-0.526,3.014-0.146 c0,0,0.001,0,0.002,0.001c0.258,0.11,0.732,0.348,1.02,0.699c0.41,0.5,0.887,1.181,0.925,2.008 c0.053,1.137-0.818,2.244-2.025,2.577C35.611,27.373,35.317,27.411,35.016,27.411z M34.661,22.763 c-0.435,0-0.885,0.097-1.246,0.283c-0.427,0.22-0.765,0.57-0.925,0.963c-0.165,0.402-0.143,0.864,0.057,1.205 c0.137,0.231,0.373,0.448,0.723,0.663c0.79,0.484,1.647,0.65,2.354,0.455c0.757-0.209,1.324-0.896,1.294-1.566 c-0.025-0.534-0.388-1.04-0.7-1.421c-0.108-0.133-0.353-0.291-0.639-0.414C35.312,22.818,34.991,22.763,34.661,22.763z"/><path fill="#373837" d="M22.846,44.768c-0.13-1.156-0.274-2.286-0.304-3.448c-0.011-0.426-0.009-0.855-0.084-1.275 c-0.071-0.401-0.212-0.787-0.351-1.17c-0.201-0.551-0.401-1.103-0.602-1.654c-0.125-0.344-0.212-0.874-0.564-0.982 c2.032,0.795,4.416,0.749,6.508,0.126c0.063-0.019,0.132-0.038,0.192-0.011c-0.785,1.25-1.59,2.935-1.893,4.377 c-0.089,0.422-0.156,0.849-0.223,1.275c-0.054,0.342-0.107,0.684-0.161,1.026c-0.138,0.881-0.218,1.364-0.267,2.255"/><path fill="#010101" d="M32.428,15.699l-0.247-0.027c0,0,0,0-0.001,0c-1.381-0.153-2.953,0.42-4.094,1.499 c-0.105,0.1-0.163,0.239-0.157,0.384c0.007,0.146,0.075,0.28,0.188,0.37c1.225,0.976,2.504,1.45,3.912,1.45 c0.004,0,0.009,0,0.014,0c1.366-0.002,3.512-1.078,3.962-1.517c0.173-0.169,0.201-0.437,0.066-0.637 C35.255,16.005,33.753,15.843,32.428,15.699z M32.029,18.375c-1,0-1.898-0.277-2.787-0.865c0.861-0.622,1.919-0.95,2.828-0.844 l0.25,0.027c0.962,0.104,1.95,0.211,2.578,0.714C34.213,17.79,32.881,18.423,32.029,18.375z"/><path fill="#010101" d="M41.123,8.787c-0.007-0.056-0.023-0.109-0.049-0.159c-0.651-1.31-2.757-2.458-4.15-3.218 l-0.307-0.167c-4.471-2.463-9.758-2.408-14.8-1.979c-6.64,0.562-11.477,1.814-14.785,3.832c-0.157,0.096-0.249,0.27-0.239,0.453 c0.091,1.705,0.19,3.455,0.29,5.205c0.104,1.825,0.207,3.65,0.302,5.428c0.295,5.524,1.751,13.676,4.884,18.465 c3.041,4.65,5.996,6.349,10.958,8.952c0.304,0.158,0.716,0.374,1.186,0.374c0.013,0,0.026,0,0.039,0 c0.302-0.008,0.565-0.109,0.805-0.218c0.019-0.007,0.037-0.015,0.055-0.023c0.039-0.018,0.084-0.034,0.121-0.052 c3.399-1.67,9.429-5.26,11.607-10.551C39.869,28.259,42.229,17.449,41.123,8.787z M24.426,44.973 c-0.255,0.006-0.497-0.135-0.734-0.26c-0.127-0.066-0.247-0.13-0.371-0.195l-0.028-0.243c-0.116-1.016-0.226-1.974-0.252-2.968 l-0.004-0.171c-0.009-0.383-0.017-0.778-0.088-1.18c-0.079-0.444-0.229-0.855-0.374-1.253l-0.59-1.623 c1.449,0.331,3.06,0.335,4.65,0.003c-0.66,1.225-1.158,2.494-1.379,3.544c-0.091,0.432-0.159,0.865-0.227,1.301l-0.178,1.132 c-0.112,0.709-0.184,1.19-0.233,1.87C24.554,44.949,24.486,44.971,24.426,44.973z M36.116,34.748 c-1.919,4.659-7.106,7.968-10.449,9.693c0.043-0.382,0.097-0.742,0.173-1.226l0.178-1.133c0.065-0.418,0.13-0.836,0.217-1.249 c0.305-1.447,1.145-3.126,1.828-4.215c0.077-0.123,0.097-0.274,0.054-0.413c-0.043-0.14-0.145-0.253-0.278-0.311 c-0.229-0.102-0.442-0.037-0.534-0.01c-2.098,0.626-4.32,0.594-6.111-0.084c-0.034-0.016-0.07-0.029-0.108-0.041 c-0.254-0.078-0.529,0.062-0.618,0.314c-0.088,0.254,0.04,0.532,0.29,0.63c0.008,0.003,0.015,0.005,0.021,0.008 c0.062,0.065,0.137,0.307,0.177,0.438c0.026,0.084,0.052,0.166,0.079,0.24l0.602,1.654c0.137,0.374,0.266,0.728,0.329,1.086 c0.058,0.325,0.064,0.666,0.072,1.026l0.004,0.176c0.024,0.888,0.116,1.761,0.212,2.617c-3.97-2.135-6.545-3.87-9.149-7.85 c-3.023-4.624-4.433-12.57-4.722-17.971c-0.095-1.778-0.198-3.605-0.302-5.432c-0.094-1.646-0.187-3.292-0.273-4.9 c3.168-1.846,7.784-3.004,14.094-3.537c4.888-0.414,9.996-0.476,14.233,1.859l0.311,0.169c1.178,0.643,3.131,1.708,3.697,2.716 C41.197,17.469,38.885,28.023,36.116,34.748z"/><path fill="#010101" d="M20.275,16.688c-0.658-0.409-1.338-0.833-2.089-1.097c-0.302-0.106-0.656-0.223-1.041-0.267 c-0.393-0.043-0.82-0.009-1.31,0.107c-1.031,0.242-1.811,0.823-2.499,1.415c-0.17,0.146-0.222,0.387-0.127,0.59 c0.245,0.525,0.849,0.906,1.794,1.133c0.716,0.173,1.526,0.368,2.352,0.368c0.011,0,0.022,0,0.033,0 c0.543-0.004,1.067-0.093,1.585-0.18c0.368-0.063,0.743-0.192,1.105-0.318c0.339-0.117,0.658-0.228,0.946-0.276 c0.209-0.036,0.373-0.199,0.409-0.409c0.035-0.209-0.065-0.418-0.251-0.521C20.879,17.063,20.577,16.876,20.275,16.688z M18.798,17.773c-0.49,0.082-0.954,0.16-1.416,0.164c-0.01,0-0.019,0-0.027,0c-0.705,0-1.423-0.173-2.117-0.341 c-0.388-0.093-0.664-0.208-0.848-0.321c0.489-0.383,1.033-0.72,1.675-0.871c0.376-0.088,0.697-0.116,0.97-0.086 c0.28,0.031,0.57,0.128,0.82,0.216c0.635,0.223,1.227,0.588,1.852,0.977C19.384,17.622,19.08,17.726,18.798,17.773z"/><path fill="#373837" d="M26.066,28.068c2.177,1.443,4.383,2.649,7.34,1.128c-1.073,1.652-3.255,2.367-4.95,2.319 c-0.757-0.021-1.499-0.196-2.235-0.371c-0.523-0.124-1.047-0.248-1.57-0.372c-0.125-0.03-0.252-0.059-0.38-0.055 c-0.154,0.005-0.306,0.048-0.447,0.11c-4.218,1.868-8.656-1.026-8.753-1.306c0.941,0.072,1.336,0.185,2.281,0.279 c0.717,0.071,1.35-0.178,1.908-0.219c0.661-0.049,1.307-0.215,1.939-0.413c0.754-0.236,1.389-0.945,2.108-1.272"/><path fill="#010101" d="M26.811,33.783c-0.078,0-0.157-0.019-0.231-0.057c-0.133-0.069-0.333-0.082-0.563-0.089 c-1.422-0.045-2.855-0.027-4.26,0.048c-0.298,0.047-0.511-0.196-0.526-0.472s0.196-0.512,0.472-0.526 c1.434-0.079,2.895-0.097,4.347-0.05c0.273,0.01,0.647,0.021,0.993,0.202c0.245,0.128,0.34,0.431,0.212,0.675 C27.164,33.686,26.99,33.783,26.811,33.783z"/><path fill="#010101" d="M33.777,28.86c-0.153-0.171-0.4-0.215-0.6-0.109c-2.534,1.303-4.449,0.441-6.45-0.849 c0.132-0.066,0.298-0.094,0.489-0.125c0.131-0.021,0.262-0.043,0.391-0.076c0.585-0.149,0.999-0.525,1.136-1.03 c0.072-0.267-0.085-0.541-0.352-0.613c-0.268-0.07-0.542,0.086-0.613,0.352c-0.057,0.21-0.312,0.296-0.419,0.323 c-0.1,0.025-0.202,0.041-0.304,0.059c-0.24,0.039-0.513,0.083-0.782,0.221c-0.146,0.073-0.283,0.172-0.419,0.273l-0.147,0.107 c-0.661,0.45-1.539,0.368-2.184-0.232c-0.087-0.083-0.195-0.188-0.338-0.264c-0.197-0.105-0.395-0.128-0.547-0.145 c-0.316-0.035-0.552-0.08-0.749-0.191c-0.195-0.11-0.336-0.296-0.374-0.495c-0.054-0.272-0.321-0.444-0.587-0.396 c-0.271,0.054-0.448,0.316-0.396,0.587c0.095,0.483,0.418,0.923,0.864,1.174c0.382,0.217,0.783,0.276,1.141,0.316 c0.006,0.001,0.013,0.002,0.019,0.002c-0.159,0.105-0.313,0.216-0.465,0.326c-0.359,0.262-0.699,0.509-1.042,0.616 c-0.499,0.156-1.158,0.342-1.827,0.391c-0.223,0.017-0.456,0.063-0.701,0.111c-0.363,0.073-0.74,0.147-1.12,0.11 c-0.418-0.042-0.726-0.088-1.023-0.131c-0.378-0.056-0.739-0.109-1.27-0.15c-0.168-0.011-0.331,0.061-0.434,0.193 c-0.104,0.134-0.132,0.31-0.077,0.469c0.187,0.541,1.966,1.321,2.041,1.354c1.495,0.651,4.443,1.548,7.385,0.246 c0.098-0.043,0.188-0.065,0.263-0.068c0.053,0.008,0.166,0.021,0.249,0.042l1.569,0.371c0.75,0.179,1.526,0.362,2.337,0.385 c0.057,0.001,0.114,0.002,0.172,0.002c1.798,0,4.061-0.775,5.212-2.549C33.949,29.277,33.929,29.028,33.777,28.86z M28.469,31.015 c-0.707-0.019-1.433-0.191-2.135-0.357l-1.565-0.371c-0.133-0.031-0.321-0.073-0.517-0.069c-0.205,0.008-0.416,0.06-0.631,0.153 c-2.229,0.987-4.522,0.546-6.111-0.059c0.453,0.026,0.849-0.065,1.208-0.138c0.202-0.041,0.395-0.081,0.579-0.094 c0.77-0.058,1.501-0.262,2.052-0.434c0.499-0.157,0.922-0.465,1.331-0.762c0.286-0.208,0.556-0.402,0.823-0.527 c0.397,0.208,0.827,0.325,1.263,0.325c0.345,0,0.689-0.073,1.015-0.208c0.004,0.003,0.005,0.007,0.009,0.009 c1.713,1.137,3.438,2.113,5.504,1.893C30.375,30.838,29.311,31.043,28.469,31.015z"/></svg>